# xmcd
#
# Track frame offsets:
#  150
#  8336
#  34808
#  47918
#  64257
#  89118
#  112750
#  131042
#  147193
#  158424
#  178066
#  200150
#  216611
#  225624
#
# Disc length: 3262 seconds
#
# Revision: 0
# Processed by: cddbd v1.5.1PL2 Copyright (c) Steve Scherf et al.
# Submitted via: Collectorz.com Music Collector 6.9
#
DISCID=c80cbc0e
DTITLE=Michael Nesmith - Disc II
DYEAR=1975
DGENRE=Singer/Songwriter
TTITLE0=Intro
TTITLE1=Harmony Constant
TTITLE2=talk
TTITLE3=One Rose
TTITLE4=The Other Side Of Goodbye
TTITLE5=Wax Minute
TTITLE6=talk
TTITLE7=Life, The Unsuspecting Captive
TTITLE8=talk
TTITLE9=Dance Between The Raindrops
TTITLE10=talk
TTITLE11=Marie's Theme
TTITLE12=talk
TTITLE13=Lampost
EXTD=
EXTT0=
EXTT1=
EXTT2=
EXTT3=
EXTT4=
EXTT5=
EXTT6=
EXTT7=
EXTT8=
EXTT9=
EXTT10=
EXTT11=
EXTT12=
EXTT13=
PLAYORDER=
